<svg width="21" height="20" viewBox="0 0 21 20" fill="none" xmlns="http://www.w3.org/2000/svg">
<g clip-path="url(#clip0_23651_7357)">
<path d="M2.5 10C2.5 5.58172 6.08172 2 10.5 2C14.9183 2 18.5 5.58172 18.5 10C18.5 14.4183 14.9183 18 10.5 18C6.08172 18 2.5 14.4183 2.5 10Z" fill="#E9EAEB"/>
<g filter="url(#filter0_d_23651_7357)">
<path d="M4 10C4 6.41015 6.91015 3.5 10.5 3.5C14.0899 3.5 17 6.41015 17 10C17 13.5899 14.0899 16.5 10.5 16.5C6.91015 16.5 4 13.5899 4 10Z" fill="white"/>
</g>
</g>
<defs>
<filter id="filter0_d_23651_7357" x="2" y="3.5" width="17" height="17" filterUnits="userSpaceOnUse" color-interpolation-filters="sRGB">
<feFlood flood-opacity="0" result="BackgroundImageFix"/>
<feColorMatrix in="SourceAlpha" type="matrix" values="0 0 0 0 0 0 0 0 0 0 0 0 0 0 0 0 0 0 127 0" result="hardAlpha"/>
<feMorphology radius="2" operator="erode" in="SourceAlpha" result="effect1_dropShadow_23651_7357"/>
<feOffset dy="2"/>
<feGaussianBlur stdDeviation="2"/>
<feColorMatrix type="matrix" values="0 0 0 0 0.105882 0 0 0 0 0.109804 0 0 0 0 0.113725 0 0 0 0.12 0"/>
<feBlend mode="normal" in2="BackgroundImageFix" result="effect1_dropShadow_23651_7357"/>
<feBlend mode="normal" in="SourceGraphic" in2="effect1_dropShadow_23651_7357" result="shape"/>
</filter>
<clipPath id="clip0_23651_7357">
<rect width="20" height="20" fill="white" transform="translate(0.5)"/>
</clipPath>
</defs>
</svg>
